<svg enable-background="new 0 0 64 64" height="64" viewBox="0 0 64 64" width="64" xmlns="http://www.w3.org/2000/svg"><path d="m60 12h-12v-8c0-2.211-1.789-4-4-4h-24c-2.211 0-4 1.789-4 4v8h-12c-2.211 0-4 1.789-4 4v44c0 2.211 1.789 4 4 4h56c2.211 0 4-1.789 4-4v-44c0-2.211-1.789-4-4-4zm-40-6c0-1.105.895-2 2-2h20c1.105 0 2 .895 2 2v6h-24zm40 52c0 1.105-.895 2-2 2h-52c-1.105 0-2-.895-2-2v-16h22v4c0 1.105.895 2 2 2h8c1.105 0 2-.895 2-2v-4h22zm-26-20v2 2 2h-4v-2-2-2-2h4zm26 0h-22v-4c0-1.105-.895-2-2-2h-8c-1.105 0-2 .895-2 2v4h-22v-20c0-1.105.895-2 2-2h52c1.105 0 2 .895 2 2z" fill="#394240"/><path d="m30 36h4v8h-4z" fill="#f9ebb2"/><path d="m38 46c0 1.105-.895 2-2 2h-8c-1.105 0-2-.895-2-2v-4h-22v16c0 1.105.895 2 2 2h52c1.105 0 2-.895 2-2v-16h-22z" fill="#45aab8"/><path d="m58 16h-52c-1.105 0-2 .895-2 2v20h22v-4c0-1.105.895-2 2-2h8c1.105 0 2 .895 2 2v4h22v-20c0-1.105-.895-2-2-2z" fill="#45aab8"/><path d="m60 58c0 1.105-.895 2-2 2h-52c-1.105 0-2-.895-2-2v-16h22v4c0 1.105.895 2 2 2h8c1.105 0 2-.895 2-2v-4h22z" opacity=".2"/></svg>